<?xml version="1.0" standalone="no"?>
<!DOCTYPE svg PUBLIC "-//W3C//DTD SVG 20010904//EN"
 "http://www.w3.org/TR/2001/REC-SVG-20010904/DTD/svg10.dtd">
<svg version="1.0" xmlns="http://www.w3.org/2000/svg"
 width="1280.000000pt" height="684.000000pt" viewBox="0 0 1280.000000 684.000000"
 preserveAspectRatio="xMidYMid meet">

<g transform="translate(0.000000,684.000000) scale(0.100000,-0.100000)"
fill="black" stroke="none">
<path d="M3688 4507 c-48 -93 -272 -498 -327 -589 -9 -14 -37 -61 -63 -105
-26 -43 -63 -103 -82 -133 -19 -30 -58 -93 -86 -140 -79 -131 -70 -124 -133
-110 -72 15 -332 16 -427 1 l-75 -11 -135 58 c-74 33 -136 64 -137 69 -2 6 49
59 114 118 281 257 472 455 488 504 14 45 -39 100 -80 85 -23 -9 -18 -22 11
-26 42 -5 52 -31 30 -73 -24 -45 -295 -313 -479 -474 l-137 -121 -58 26 c-130
57 -212 127 -212 181 0 90 121 203 323 302 105 51 271 115 367 142 91 25 117
44 46 34 -64 -9 -267 -76 -362 -120 -41 -19 -77 -35 -79 -35 -2 0 -42 -23 -90
-51 -105 -62 -207 -158 -225 -213 -7 -21 -10 -57 -7 -80 7 -54 74 -117 180
-169 42 -20 77 -41 76 -45 0 -4 -28 -29 -61 -57 -163 -134 -253 -205 -261
-205 -4 0 -6 9 -2 19 51 161 68 319 40 383 -36 87 -143 132 -258 109 -77 -15
-204 -75 -277 -130 -168 -127 -279 -284 -326 -463 -22 -85 -14 -250 15 -326
76 -191 207 -286 454 -327 23 -4 37 -11 37 -21 0 -8 -11 -79 -24 -157 -27
-155 -49 -357 -42 -378 3 -8 7 -58 10 -111 5 -99 23 -153 52 -165 28 -10 36
12 20 50 -25 60 -38 249 -26 368 12 125 45 330 60 374 l11 32 148 6 c166 7
393 48 521 92 97 34 247 105 302 143 73 50 157 143 188 208 42 86 42 176 1
251 l-29 52 29 -6 c22 -4 38 1 65 22 46 35 244 93 244 72 0 -19 -381 -633
-415 -668 -20 -21 -19 -29 5 -29 19 0 37 25 205 285 18 28 41 66 51 85 11 19
27 46 35 60 9 14 48 80 88 148 40 67 74 122 77 122 20 0 104 -26 124 -39 110
-68 167 -148 216 -299 38 -118 55 -249 61 -457 3 -104 9 -194 14 -199 18 -20
32 14 34 81 1 37 8 154 14 258 7 105 18 318 26 475 7 157 16 292 20 302 7 17
100 42 345 94 63 13 129 28 145 33 17 5 43 12 60 16 28 6 27 5 -18 -35 -26
-23 -45 -46 -42 -51 4 -5 16 1 28 12 41 39 166 94 278 123 30 8 97 26 151 40
53 14 105 26 117 26 12 0 21 6 21 15 0 21 -35 19 -153 -11 -245 -62 -720 -173
-896 -209 l-34 -7 6 83 c17 242 110 748 167 913 23 69 25 86 8 86 -7 0 -39
-51 -70 -113z m-18 -132 c0 -3 -12 -67 -26 -143 -46 -248 -61 -345 -79 -502
-20 -189 -22 -200 -38 -205 -27 -8 -398 -95 -407 -95 -20 0 -8 24 77 163 118
193 255 428 298 510 19 37 51 92 70 122 19 30 35 57 35 60 0 14 52 95 61 95 5
0 9 -2 9 -5z m-1923 -645 c72 -43 90 -114 63 -250 -34 -173 -94 -316 -142
-338 -5 -2 -8 -8 -8 -14 0 -7 5 -6 14 1 32 27 24 -15 -33 -166 -57 -152 -100
-280 -119 -353 l-9 -35 -59 3 c-123 5 -232 52 -310 134 -101 105 -134 189
-134 344 0 78 3 104 15 114 8 7 15 24 15 38 0 28 29 113 41 122 4 3 15 24 24
47 9 23 23 44 31 47 8 3 14 12 14 19 0 8 12 25 28 40 15 14 45 44 67 67 77 79
183 142 325 193 8 3 44 6 80 6 48 1 73 -4 97 -19z m568 -268 c49 -23 91 -45
93 -50 1 -5 -15 -12 -37 -16 -56 -9 -294 -83 -350 -108 -94 -44 -121 -79 -85
-109 35 -29 238 -1 594 80 101 23 112 19 150 -55 99 -194 -103 -427 -470 -542
-187 -59 -307 -80 -509 -89 l-143 -6 7 34 c10 45 53 173 113 339 28 74 58 160
69 190 17 50 28 62 128 143 61 48 119 96 130 105 161 136 158 134 190 129 17
-3 71 -23 120 -45z m1221 20 c-3 -5 -10 -116 -15 -248 -15 -341 -22 -438 -32
-423 -4 7 -11 36 -14 64 -11 80 -52 212 -87 278 -43 80 -116 158 -189 202 -32
20 -59 40 -59 44 0 5 28 14 63 21 34 7 112 25 172 41 112 28 170 36 161 21z
m-617 -68 c40 -8 39 -20 -1 -33 -77 -23 -93 -23 -122 4 -15 14 -29 25 -32 25
-21 0 -75 -33 -97 -59 -28 -33 -33 -33 -72 0 -11 10 -29 25 -40 33 -18 13 -15
15 35 24 63 11 282 15 329 6z m-386 -64 c26 -16 47 -34 47 -39 0 -5 -35 -17
-77 -26 -43 -9 -125 -27 -183 -40 -199 -44 -340 -55 -340 -26 0 32 373 159
471 160 23 1 52 -10 82 -29z"/>
<path d="M1521 3030 c-14 -12 -21 -26 -17 -35 5 -13 11 -11 36 11 47 43 30 65
-19 24z"/>
<path d="M6330 4190 c-21 -22 -34 -53 -49 -118 -19 -82 -26 -125 -66 -392 -22
-148 -20 -143 -77 -198 -78 -75 -344 -301 -443 -378 -70 -54 -232 -162 -253
-168 -23 -8 -121 49 -145 85 -14 19 -10 27 49 116 35 53 64 104 64 114 0 34
-47 23 -102 -23 -60 -51 -82 -97 -74 -155 5 -38 2 -47 -33 -90 -124 -153 -243
-243 -323 -243 -53 0 -89 45 -119 148 -11 37 -10 50 5 91 22 61 14 101 -20
101 -33 0 -47 -32 -40 -94 6 -48 5 -53 -31 -97 -52 -63 -120 -108 -176 -115
-42 -6 -49 -4 -76 24 -27 27 -31 37 -31 86 0 32 9 77 20 106 11 28 20 62 20
75 0 40 -26 29 -40 -17 -20 -69 -46 -113 -105 -177 -64 -68 -133 -103 -161
-81 -32 27 -46 73 -50 169 -3 53 -7 106 -10 118 -5 27 -30 53 -51 53 -24 0
-87 -73 -138 -161 -26 -43 -48 -79 -50 -79 -2 0 -3 28 -2 63 2 56 0 62 -18 62
-11 0 -19 -5 -18 -12 1 -6 -2 -68 -7 -138 -9 -130 -7 -155 14 -155 15 0 46 68
46 99 0 32 89 200 126 239 50 51 61 44 68 -45 12 -139 17 -170 37 -202 46 -75
111 -67 209 26 45 42 71 60 74 52 2 -8 9 -32 15 -55 14 -53 40 -75 94 -81 57
-7 138 31 200 92 24 25 49 45 54 45 6 0 20 -26 32 -58 25 -71 56 -102 110
-109 89 -12 205 65 345 230 27 31 54 57 61 57 7 0 20 -9 30 -20 11 -12 36 -31
57 -42 21 -12 37 -26 35 -31 -2 -6 -30 -24 -62 -41 -98 -52 -136 -78 -132 -90
8 -23 345 -2 371 24 13 13 -16 53 -58 80 -20 12 -36 25 -36 29 0 4 35 31 78
59 137 91 398 303 550 446 40 38 75 66 78 63 3 -3 1 -45 -6 -94 -27 -211 -32
-288 -34 -448 -1 -122 3 -176 12 -192 15 -27 30 -29 39 -5 4 9 15 28 25 41 10
13 18 33 18 45 0 11 10 36 23 55 12 19 27 43 33 53 6 10 24 29 40 43 75 65
114 36 114 -84 0 -42 5 -92 10 -112 18 -64 100 -108 203 -109 57 0 36 16 -31
24 -77 9 -128 43 -142 94 -5 21 -9 72 -8 113 1 72 -11 114 -36 131 -6 4 -31 8
-55 8 -40 0 -49 -5 -88 -46 -24 -25 -58 -75 -75 -110 -17 -36 -34 -67 -39 -70
-27 -16 -16 285 20 564 l19 143 123 127 c158 162 184 209 184 332 0 91 -19
145 -68 194 -54 54 -88 58 -127 16z m95 -34 c58 -33 80 -82 80 -181 0 -70 -4
-87 -30 -134 -33 -59 -209 -251 -230 -251 -16 0 -17 -11 26 268 31 209 47 272
76 304 20 23 29 22 78 -6z m-1065 -942 c0 -9 -79 -122 -90 -129 -15 -9 -12 32
5 64 19 37 85 88 85 65z m116 -351 c50 -32 53 -40 22 -52 -38 -14 -241 -25
-237 -12 3 8 149 87 168 90 2 1 23 -11 47 -26z"/>
<path d="M7587 4123 c-2 -5 -7 -24 -11 -44 -4 -20 -19 -48 -36 -64 -17 -16
-30 -36 -30 -44 1 -11 8 -8 25 12 13 15 27 27 30 27 10 0 5 -86 -14 -246 -11
-87 -23 -205 -27 -262 l-7 -102 -38 -31 c-88 -69 -271 -179 -299 -179 -6 0
-45 24 -86 53 -125 86 -144 98 -186 113 -22 8 -61 14 -85 14 -36 0 -50 -6 -74
-29 -32 -32 -36 -63 -16 -108 16 -37 71 -85 116 -101 53 -20 197 -19 245 2 54
23 81 20 129 -12 23 -16 93 -57 155 -91 l112 -63 0 -91 c0 -109 -11 -136 -30
-77 -7 22 -16 40 -20 40 -11 0 -22 -84 -14 -106 10 -25 51 -64 69 -64 15 0 22
34 31 173 3 53 9 97 12 97 3 0 28 -11 57 -24 252 -120 357 -159 408 -154 28 3
32 6 29 31 -3 26 11 37 23 17 8 -14 94 -13 136 2 55 18 140 77 189 130 l45 49
30 -53 c43 -74 85 -101 152 -96 65 6 121 41 169 108 l36 50 89 -46 c81 -42 89
-49 89 -75 0 -29 7 -33 45 -29 73 7 261 221 403 460 31 52 58 88 59 80 1 -8 9
-79 17 -156 21 -193 67 -310 119 -302 33 5 42 31 28 77 -16 55 -30 52 -23 -4
11 -102 -56 -18 -77 95 -30 164 -35 315 -15 473 6 45 -9 107 -25 107 -23 0
-31 -31 -31 -123 0 -116 -7 -134 -127 -317 -99 -151 -189 -258 -265 -315 l-62
-46 -24 31 c-13 17 -59 49 -103 70 l-78 40 6 63 c9 104 -27 159 -105 159 -44
0 -72 -30 -72 -76 0 -40 26 -79 78 -117 23 -17 42 -34 42 -38 0 -16 -56 -90
-84 -112 -63 -49 -166 -32 -206 34 -25 40 -25 60 0 132 11 32 20 73 20 92 0
47 -25 91 -56 99 -65 16 -190 -51 -299 -162 -78 -79 -122 -151 -131 -213 -7
-43 -7 -43 -20 -20 -11 22 -13 22 -20 6 -3 -10 -2 -29 4 -42 14 -30 7 -35 -32
-28 -66 13 -386 149 -413 176 -11 10 -11 51 -4 216 6 112 11 204 13 205 2 1
39 29 83 62 133 101 366 267 439 312 90 57 134 72 217 72 72 0 89 9 63 34 -28
29 -110 14 -214 -39 -75 -38 -105 -58 -353 -237 -119 -87 -221 -158 -227 -158
-5 0 -8 17 -5 38 2 20 7 73 10 117 3 44 12 132 20 195 20 171 29 340 16 340
-5 0 -12 -3 -14 -7z m-81 -945 c-3 -94 -8 -173 -10 -176 -6 -6 -175 84 -239
126 l-58 39 76 42 c42 24 109 65 148 92 39 27 76 49 81 49 5 0 7 -66 2 -172z
m-574 138 c18 -8 61 -35 94 -59 33 -24 71 -50 83 -56 55 -30 -17 -59 -148 -60
-137 -1 -200 34 -217 119 -6 28 -3 31 37 50 52 23 104 25 151 6z m1550 -131
c8 -37 -73 -172 -145 -245 -38 -39 -84 -72 -125 -92 -58 -27 -71 -30 -111 -22
-44 9 -46 11 -49 46 -5 60 38 129 143 229 44 41 107 86 140 99 11 5 48 9 81 9
58 1 62 0 66 -24z m280 15 c30 0 48 -29 48 -78 0 -73 -11 -81 -60 -47 -54 37
-76 79 -61 112 9 19 17 24 34 19 12 -3 30 -6 39 -6z"/>
<path d="M10019 3871 c-16 -16 -32 -44 -35 -61 -4 -17 -11 -33 -16 -36 -12 -8
-167 -19 -448 -34 -580 -30 -1078 -62 -1103 -72 -15 -6 -26 -16 -24 -22 5 -15
216 -41 230 -27 7 7 -7 12 -43 17 -32 4 -47 10 -39 15 20 11 493 45 894 64
245 11 481 26 505 31 l26 5 18 -263 c25 -383 54 -569 87 -576 9 -2 19 5 23 15
3 10 17 36 31 58 14 22 25 48 25 58 0 20 44 93 71 120 10 9 25 17 33 17 14 0
18 -12 32 -95 26 -153 130 -167 302 -38 18 14 35 23 36 22 2 -2 13 -23 25 -46
14 -29 28 -43 41 -43 11 0 20 7 20 15 0 8 -6 12 -14 9 -14 -5 -19 7 -53 125
-2 10 -13 3 -34 -23 -17 -20 -54 -52 -83 -70 -138 -88 -195 -65 -218 91 -10
73 -29 113 -50 113 -25 0 -178 -210 -178 -245 -1 -17 -2 -18 -10 -4 -23 40
-83 731 -64 748 5 4 64 15 131 24 122 16 183 36 183 60 0 46 -80 76 -203 77
-63 0 -71 -2 -98 -29z m240 -26 c22 -22 23 -23 5 -33 -15 -7 -219 -42 -249
-42 -11 0 6 64 22 82 19 22 52 27 133 21 50 -4 70 -10 89 -28z"/>
<path d="M11053 3817 c-31 -21 -48 -45 -39 -54 2 -3 16 3 30 12 24 16 26 16
33 -1 11 -26 10 -374 0 -447 -8 -54 -11 -60 -43 -73 -18 -8 -46 -14 -60 -14
-58 0 -115 -34 -99 -60 5 -8 63 1 125 20 19 5 41 10 47 10 18 0 16 -49 -4
-145 -19 -88 -21 -181 -4 -198 22 -22 30 9 41 143 5 74 13 148 16 163 7 34 9
33 149 -30 55 -25 114 -51 132 -59 89 -40 233 -77 316 -81 l87 -5 0 44 c0 31
-9 63 -29 99 -45 84 -70 77 -31 -10 24 -51 26 -89 6 -97 -23 -9 -153 14 -235
42 -76 25 -148 55 -287 120 -41 19 -79 34 -84 34 -28 0 -3 28 48 55 63 33 178
109 287 189 95 70 117 84 146 88 30 4 34 42 4 46 -23 3 -33 -4 -186 -119 -121
-91 -201 -144 -269 -179 l-42 -21 7 61 c19 166 4 492 -23 489 -4 0 -22 -10
-39 -22z"/>
<path d="M10524 3548 c9 -57 83 -131 146 -148 51 -14 140 -7 152 12 15 24 8
64 -14 85 -52 46 -94 63 -155 63 -37 0 -67 6 -79 15 -10 8 -27 15 -38 15 -16
0 -18 -5 -12 -42z m214 -36 c12 -8 22 -18 22 -23 0 -4 10 -18 22 -29 19 -18
20 -22 8 -30 -22 -14 -96 -12 -134 4 -32 13 -86 63 -86 78 0 5 11 8 25 8 14 0
25 5 25 11 0 14 88 0 118 -19z"/>
</g>
</svg>
